<?xml version="1.0" standalone="no"?>
<!DOCTYPE svg PUBLIC "-//W3C//DTD SVG 20010904//EN"
 "http://www.w3.org/TR/2001/REC-SVG-20010904/DTD/svg10.dtd">
<svg version="1.0" xmlns="http://www.w3.org/2000/svg"
 width="1344.000000pt" height="768.000000pt" viewBox="0 0 1344.000000 768.000000"
 preserveAspectRatio="xMidYMid meet">

<g transform="translate(0.000000,768.000000) scale(0.100000,-0.100000)"
fill="#000000" stroke="none">
<path d="M7923 6311 c-51 -13 -98 -54 -112 -99 -12 -36 -12 -44 5 -73 28 -48
64 -70 114 -71 47 0 80 25 80 62 0 23 -36 54 -55 46 -24 -9 -31 -37 -12 -51
10 -7 17 -18 17 -24 0 -18 -71 -9 -80 9 -4 8 -12 25 -18 37 -10 19 -9 24 8 33
16 9 18 15 10 29 -13 25 19 66 65 81 63 21 130 -11 165 -78 10 -20 9 -27 -5
-42 -10 -11 -14 -26 -11 -38 10 -30 -3 -54 -25 -47 -14 5 -21 0 -28 -18 -5
-13 -35 -41 -66 -61 -52 -35 -58 -37 -74 -22 -25 23 -32 20 -64 -19 -44 -55
-101 -89 -140 -82 -20 3 -40 0 -52 -9 -26 -20 -58 -17 -88 6 -34 27 -37 26
-30 -13 l5 -33 -79 -27 c-45 -16 -99 -27 -128 -27 -92 0 -161 58 -139 118 8
20 8 33 0 45 -13 20 2 34 47 44 33 7 42 19 27 38 -16 19 2 27 48 19 31 -5 40
-3 45 10 19 50 87 -19 87 -89 0 -30 -7 -44 -36 -71 -38 -37 -62 -43 -69 -19
-3 8 -7 22 -10 30 -2 9 -11 12 -20 9 -23 -9 -14 -46 15 -63 23 -12 30 -12 64
4 58 28 78 67 72 140 -4 57 -3 62 26 92 18 18 29 35 27 38 -3 2 -23 -5 -46
-16 -36 -18 -47 -19 -112 -8 -40 6 -83 8 -96 5 -50 -13 -115 -87 -115 -133 -1
-46 -16 -48 -72 -10 -72 50 -114 61 -185 47 -81 -15 -122 -39 -168 -99 -35
-47 -41 -51 -50 -36 -43 76 -112 121 -197 131 -69 8 -124 -8 -181 -51 -25 -19
-50 -35 -55 -35 -5 0 -12 19 -15 42 -6 48 -30 84 -78 116 -32 23 -40 24 -134
17 -94 -6 -103 -5 -129 16 -41 33 -44 14 -4 -29 34 -36 36 -39 31 -94 -4 -44
-1 -64 11 -83 21 -31 73 -65 102 -65 28 0 56 32 48 54 -9 23 -39 16 -39 -9 0
-15 -7 -20 -30 -20 -22 0 -35 8 -52 34 -31 45 -30 95 3 138 28 37 50 42 59 13
7 -23 11 -24 54 -9 41 15 66 -3 36 -25 -18 -13 -17 -14 13 -30 17 -9 40 -16
52 -16 22 0 27 -19 8 -38 -10 -10 -10 -17 0 -32 19 -31 14 -54 -15 -81 -59
-54 -176 -58 -285 -10 -47 20 -58 34 -38 46 15 10 12 35 -5 35 -8 0 -15 -4
-15 -9 0 -5 -14 -14 -31 -20 -24 -8 -37 -7 -61 5 -17 9 -40 13 -51 10 -31 -8
-82 18 -132 68 -44 45 -65 56 -65 36 0 -15 -42 -10 -75 9 -16 9 -39 31 -50 48
-12 19 -30 33 -45 35 -20 2 -26 9 -28 33 -1 17 -8 40 -14 52 -23 47 25 117 90
129 73 14 148 -32 136 -83 -5 -17 -2 -23 10 -23 14 0 16 -7 10 -37 -7 -45 -20
-59 -55 -68 -17 -4 -30 -1 -39 10 -12 15 -11 19 10 36 l25 18 -21 22 c-18 17
-25 19 -42 10 -77 -41 15 -145 97 -111 17 7 42 28 57 47 22 29 25 41 20 77
-12 75 -82 126 -174 126 -126 -1 -207 -121 -153 -227 19 -39 115 -133 135
-133 5 0 34 -12 65 -27 53 -26 54 -28 27 -31 -29 -4 -66 10 -98 36 -10 8 -37
15 -60 14 -29 0 -50 7 -65 20 -14 13 -28 18 -42 13 -14 -4 -23 0 -30 13 -6 11
-23 24 -38 30 -30 10 -90 64 -110 97 -12 20 -12 20 -18 -1 -6 -18 -17 -22 -81
-27 -117 -10 -214 -72 -230 -145 -3 -15 -9 -36 -13 -47 -16 -41 -33 23 -35
131 -1 101 0 103 28 133 36 38 49 38 82 6 42 -42 61 -29 24 17 -39 51 -105 38
-150 -30 -22 -33 -25 -47 -25 -132 0 -114 19 -156 96 -215 38 -29 49 -43 49
-65 0 -36 16 -47 30 -21 10 20 11 20 59 -4 58 -30 75 -30 121 -5 19 10 44 23
55 28 12 6 27 17 34 26 15 18 48 21 85 6 14 -5 28 -5 31 0 6 10 -50 40 -76 40
-13 0 -21 12 -29 40 -6 22 -28 58 -49 80 -34 36 -43 40 -88 40 -27 0 -57 -6
-67 -13 -23 -17 -18 -60 8 -65 15 -3 18 1 14 22 -7 37 19 50 72 36 72 -19 114
-119 71 -170 -20 -23 -22 -24 -35 -7 -17 22 -21 21 -56 -4 -32 -25 -60 -19
-60 11 0 19 -4 20 -56 14 l-56 -7 6 30 c6 25 3 33 -19 47 -20 13 -25 25 -25
56 0 76 77 133 197 146 l58 7 -20 -23 -20 -23 35 6 c49 9 101 -5 134 -36 15
-15 36 -29 47 -32 10 -3 21 -15 24 -25 4 -11 18 -22 33 -26 15 -3 43 -12 62
-21 l35 -15 -22 -15 c-13 -9 -23 -22 -23 -30 0 -11 6 -13 23 -9 97 30 373 30
390 1 6 -11 19 -13 51 -9 40 6 45 4 69 -27 22 -28 28 -31 41 -20 14 12 28 10
88 -9 91 -29 166 -24 231 14 l45 27 16 -54 c26 -89 61 -126 220 -232 172 -114
198 -143 204 -226 2 -32 8 -59 13 -59 14 0 29 37 29 75 0 74 -42 117 -240 248
-131 86 -156 109 -165 152 -18 79 -18 79 14 103 32 24 42 62 16 62 -26 0 -16
29 13 36 59 13 62 15 62 44 0 37 20 43 89 29 31 -6 65 -12 77 -15 30 -5 91
-71 98 -106 8 -41 -15 -77 -55 -85 -17 -3 -37 -16 -46 -29 -8 -13 -24 -24 -34
-24 -10 0 -21 -4 -24 -10 -13 -20 -53 -10 -79 20 -37 44 -21 76 24 48 37 -23
77 24 50 57 -16 19 -70 19 -97 0 -30 -21 -37 -59 -18 -100 45 -93 232 -92 290
2 25 40 36 41 58 4 26 -44 116 -85 168 -77 120 19 183 114 115 173 -44 37
-106 24 -106 -22 0 -36 33 -50 65 -29 14 9 29 14 32 10 12 -12 -11 -58 -39
-79 -27 -20 -28 -20 -68 -2 -23 10 -45 25 -49 33 -5 9 -24 20 -42 26 -67 22
-73 101 -11 158 34 32 108 58 167 58 38 0 45 -3 45 -19 0 -33 11 -51 32 -51
28 0 58 -18 58 -35 0 -8 -7 -15 -15 -15 -26 0 -17 -25 21 -58 26 -23 34 -37
29 -50 -4 -9 -11 -32 -15 -50 -11 -47 -37 -71 -181 -172 -191 -135 -243 -204
-207 -276 23 -49 38 -41 38 19 0 77 36 121 180 220 63 43 132 95 154 115 45
43 75 103 76 149 0 41 14 49 48 25 52 -36 90 -45 160 -39 37 3 87 14 111 23
42 17 44 17 57 0 12 -17 15 -16 47 18 36 37 72 47 95 24 10 -10 14 -10 21 0
29 47 275 58 399 18 26 -9 31 14 7 34 -24 20 -18 28 34 44 27 8 59 24 72 35
13 12 42 37 63 56 38 34 51 38 126 39 28 1 34 5 32 19 -3 16 3 18 60 11 68 -7
137 -39 163 -76 24 -35 19 -90 -11 -119 -14 -13 -23 -31 -21 -41 8 -28 -16
-39 -67 -32 -45 7 -46 6 -46 -20 0 -33 -14 -33 -52 -1 -28 24 -32 25 -53 11
-31 -21 -45 -3 -45 56 0 38 6 54 28 79 24 26 36 32 73 33 42 1 44 0 44 -29 0
-23 4 -30 20 -30 14 0 21 8 23 26 4 36 -20 52 -78 53 -64 1 -99 -25 -127 -95
-12 -30 -30 -56 -40 -60 -91 -28 -111 -53 -35 -43 40 5 52 2 82 -20 54 -39
107 -66 130 -66 12 0 35 7 52 16 20 10 45 14 70 11 35 -5 38 -3 38 19 0 24 17
44 63 76 14 10 38 44 54 75 24 49 28 70 28 138 -1 111 -38 174 -112 190 -27 5
-37 2 -58 -19 -24 -24 -34 -56 -17 -56 5 0 18 14 30 30 28 37 42 38 75 4 39
-39 53 -160 28 -252 -13 -46 -31 -48 -31 -3 0 15 -13 46 -29 68 -45 62 -90 85
-194 96 -73 9 -91 14 -95 29 -6 24 -19 23 -27 -1 -7 -24 -70 -81 -89 -81 -7 0
-23 -11 -36 -25 -13 -14 -34 -25 -46 -25 -13 0 -29 -8 -36 -18 -20 -28 -35
-34 -56 -21 -15 9 -27 7 -63 -12 -64 -34 -113 -49 -122 -40 -5 5 26 25 68 46
163 78 227 204 156 304 -39 55 -123 81 -198 62z"/>
<path d="M8844 6013 c-44 -98 -56 -121 -92 -169 -37 -48 -59 -104 -41 -104 4
0 27 18 51 40 24 22 91 63 151 92 59 29 107 58 107 64 0 6 -7 17 -15 24 -8 7
-15 25 -15 41 0 27 -3 29 -39 29 -22 0 -43 5 -46 10 -14 23 -44 9 -61 -27z"/>
<path d="M4458 6019 c-10 -5 -30 -9 -45 -7 -24 3 -28 -1 -31 -27 -2 -16 -8
-34 -13 -39 -21 -22 -8 -46 34 -63 74 -30 148 -72 198 -114 88 -73 86 -23 -4
90 -28 36 -59 89 -68 116 -17 52 -37 65 -71 44z m157 -228 c-7 -6 -65 50 -65
63 0 5 16 -5 35 -24 19 -18 32 -36 30 -39z"/>
<path d="M8954 5851 c-102 -37 -125 -58 -180 -156 -6 -11 -20 -21 -30 -23 -44
-7 -48 -11 -30 -30 9 -10 16 -35 16 -56 0 -51 12 -72 81 -137 54 -51 59 -58
53 -87 -5 -25 -3 -32 9 -32 14 0 29 42 32 84 0 5 22 21 49 35 27 14 58 38 69
53 26 35 27 100 3 127 -23 25 -74 28 -83 5 -7 -19 11 -41 21 -25 12 18 45 12
56 -10 17 -31 2 -75 -36 -109 -28 -24 -43 -30 -82 -30 -26 0 -54 5 -62 10 -13
8 -12 11 5 24 20 15 19 16 -12 41 -37 30 -43 55 -13 55 21 0 29 33 10 45 -5 3
-10 20 -10 36 0 25 4 30 20 27 13 -2 29 8 43 26 19 23 33 30 74 33 45 5 56 2
95 -25 26 -18 55 -50 71 -81 29 -52 29 -71 0 -71 -11 0 -13 -5 -7 -17 5 -10 9
-39 9 -65 0 -38 -5 -52 -28 -76 -15 -16 -27 -33 -26 -38 4 -23 -3 -33 -23 -36
-20 -3 -24 -11 -31 -63 -12 -89 -1 -266 23 -380 23 -105 36 -190 46 -290 6
-55 24 -103 24 -63 0 27 20 32 43 10 12 -11 35 -25 50 -31 33 -13 28 -25 -16
-47 -18 -9 -42 -26 -55 -38 l-23 -21 -18 24 c-18 23 -18 23 -25 -50 -3 -40
-11 -78 -16 -83 -6 -6 -10 -35 -10 -66 0 -64 -15 -123 -60 -240 -64 -165 -163
-322 -353 -560 -285 -356 -552 -633 -855 -885 -271 -225 -575 -442 -637 -455
-19 -4 -31 -13 -33 -25 -6 -29 -39 -62 -105 -102 -42 -27 -54 -39 -47 -48 8
-9 -13 -31 -79 -83 -63 -50 -99 -87 -126 -131 -21 -34 -39 -61 -40 -61 -2 0
-17 24 -33 53 -22 40 -56 74 -136 137 -58 46 -106 87 -106 92 0 4 16 2 35 -6
61 -26 48 2 -16 35 -103 51 -138 78 -141 107 -2 22 -9 28 -38 32 -71 12 -457
286 -714 507 -190 163 -521 495 -669 672 -393 467 -523 723 -554 1089 -5 61
-15 78 -27 46 -5 -13 -10 -12 -38 8 -18 13 -51 31 -73 41 -38 18 -39 19 -21
33 11 8 24 14 30 14 5 0 23 12 38 27 l29 27 6 -22 c10 -39 21 -24 26 36 7 88
24 200 41 272 22 95 36 253 30 345 -7 112 -11 123 -37 127 -15 2 -23 11 -25
28 -2 14 -14 36 -27 50 -30 33 -41 98 -21 125 24 31 21 52 -4 30 -34 -31 -36
8 -2 67 59 106 168 144 233 82 16 -16 38 -29 47 -29 18 0 21 -33 6 -89 -6 -26
-5 -29 15 -23 36 9 34 -12 -3 -45 -27 -24 -33 -35 -25 -44 18 -22 0 -34 -53
-34 -44 0 -54 4 -84 34 -34 34 -43 71 -28 110 7 19 35 21 52 4 9 -9 15 -9 25
1 10 10 8 15 -7 27 -45 33 -96 -1 -96 -64 0 -53 38 -105 94 -128 42 -17 44
-21 50 -66 5 -33 11 -48 22 -48 11 0 14 10 12 35 -2 32 5 42 60 95 61 57 62
60 62 111 0 35 6 59 16 71 17 18 17 19 -26 30 -8 3 -33 31 -55 64 -31 46 -52
65 -95 86 -77 39 -186 56 -248 39 -89 -24 -121 -87 -65 -131 31 -24 45 -10 19
19 -22 24 -20 58 3 71 31 16 160 12 225 -8 80 -24 85 -42 11 -42 -36 0 -70 -7
-95 -20 -57 -29 -108 -102 -119 -170 -5 -26 -12 -36 -29 -38 -29 -4 -28 -16 4
-30 17 -8 35 -34 54 -76 16 -36 34 -67 40 -71 6 -4 8 -16 4 -27 -4 -13 2 -28
17 -44 20 -21 22 -28 11 -45 -11 -17 -11 -25 2 -44 17 -26 23 -147 7 -129 -5
5 -23 43 -41 84 -40 94 -84 149 -142 178 -149 74 -307 -60 -239 -202 40 -81
132 -110 202 -63 47 32 64 69 47 104 -18 37 -62 62 -85 47 -24 -15 -28 -48 -8
-64 15 -12 19 -11 34 8 13 18 19 20 29 10 16 -16 15 -40 -2 -63 -18 -25 -94
-32 -102 -10 -4 8 -18 15 -33 15 -33 0 -71 46 -71 85 0 52 27 95 72 115 57 26
74 25 94 -6 11 -16 24 -24 35 -21 25 7 54 -16 46 -37 -5 -12 3 -23 28 -37 22
-14 35 -29 35 -42 0 -12 7 -31 15 -41 21 -27 19 -46 -5 -46 -28 0 -25 -11 10
-45 16 -15 39 -49 51 -74 18 -39 21 -57 16 -116 -4 -39 -14 -95 -22 -125 -9
-30 -19 -66 -23 -80 -5 -16 -23 -32 -47 -45 -35 -17 -37 -20 -17 -23 33 -5 27
-17 -20 -43 -32 -17 -60 -23 -108 -23 -115 -1 -155 30 -161 124 -4 51 -2 55
24 68 20 10 27 20 27 43 0 34 22 48 45 29 13 -11 20 -9 38 9 13 11 28 21 33
21 18 0 64 -84 64 -116 0 -40 -44 -81 -66 -63 -8 6 -14 20 -14 31 0 24 -26 34
-45 18 -20 -17 -19 -43 3 -63 36 -33 107 -16 135 33 22 37 21 55 -4 107 l-21
44 23 44 c28 52 21 64 -18 37 -15 -11 -50 -23 -78 -27 -89 -11 -120 -24 -160
-65 -34 -35 -39 -46 -42 -97 -5 -74 16 -116 83 -161 27 -19 50 -37 52 -41 1
-4 -8 -13 -22 -19 -58 -26 -109 -148 -92 -217 4 -17 28 -49 52 -72 l45 -41
-28 -14 c-21 -10 -29 -21 -31 -48 -2 -19 -7 -39 -11 -43 -5 -5 -37 17 -72 48
-244 219 -657 426 -924 465 -38 5 -115 17 -170 26 -104 16 -337 14 -540 -6
-126 -13 -372 -13 -485 -1 -140 15 -213 47 -295 129 -73 75 -115 140 -115 181
0 50 66 84 77 40 4 -14 12 -19 24 -16 14 4 17 -1 16 -22 -2 -20 3 -26 18 -27
40 -2 45 -4 45 -19 0 -8 -9 -15 -20 -15 -11 0 -20 -5 -20 -11 0 -18 110 -119
129 -119 26 0 60 41 67 80 4 19 13 44 21 55 55 80 -92 235 -204 213 -14 -3
-10 -8 20 -26 57 -36 48 -69 -11 -38 -15 8 -35 17 -46 20 -11 4 -16 12 -12 21
4 12 0 14 -22 9 -69 -15 -133 -101 -139 -187 -4 -54 29 -168 58 -203 31 -38
89 -64 147 -68 31 -1 64 -5 72 -8 62 -21 91 -28 123 -28 39 0 45 -8 25 -28
-16 -16 -137 -15 -179 2 -19 7 -52 16 -74 19 l-40 6 28 -24 c15 -14 36 -25 46
-25 10 0 26 -9 37 -21 16 -17 26 -20 62 -15 23 3 60 15 83 27 44 22 69 20 69
-7 0 -16 2 -15 22 3 31 27 148 33 148 7 0 -10 -7 -26 -17 -36 -28 -31 -7 -30
41 2 35 24 45 37 41 50 -7 22 12 37 28 21 6 -6 30 -11 54 -11 36 0 43 -3 43
-19 0 -23 -116 -122 -178 -152 -57 -28 -76 -20 -69 30 5 43 3 43 -52 15 -28
-15 -52 -6 -75 27 -9 13 -21 19 -30 16 -22 -9 -20 -29 5 -61 18 -23 28 -27 62
-24 l41 3 3 -50 c3 -42 0 -52 -19 -67 -13 -10 -40 -18 -62 -18 -62 0 -131 -53
-97 -75 6 -3 20 8 32 25 13 16 31 30 41 30 29 0 21 -14 -27 -50 -25 -18 -47
-41 -50 -50 -3 -9 -26 -43 -51 -76 -25 -32 -51 -72 -59 -90 -7 -17 -25 -43
-39 -57 -15 -15 -34 -43 -41 -61 -8 -19 -19 -37 -25 -41 -5 -3 -10 -21 -10
-39 0 -19 -7 -39 -14 -46 -19 -15 -50 -95 -43 -112 3 -9 7 -7 13 7 10 26 25
36 45 30 13 -4 19 7 28 55 8 41 17 60 27 60 12 0 13 -9 8 -48 -5 -37 0 -64 19
-121 14 -41 35 -83 46 -95 21 -23 28 -46 13 -46 -14 0 -59 53 -67 78 -8 27
-25 29 -25 3 0 -33 22 -81 42 -92 15 -8 18 -17 13 -38 -8 -35 28 -99 62 -112
29 -11 26 -33 -6 -37 -29 -5 -44 9 -79 71 -35 63 -60 138 -64 192 -2 32 -7 40
-23 40 -19 0 -20 -6 -19 -90 1 -49 7 -108 14 -131 16 -49 7 -86 -15 -63 -19
20 -45 115 -45 165 0 45 -15 67 -24 37 -8 -26 -24 -192 -21 -211 2 -10 9 -53
15 -97 17 -117 19 -125 35 -125 7 0 17 -10 21 -22 11 -36 156 -180 168 -168 8
8 18 2 36 -21 21 -24 36 -32 73 -36 46 -5 67 -23 28 -23 -25 0 -31 -10 -20
-37 6 -16 19 -24 49 -29 38 -6 54 -27 27 -36 -39 -14 -114 18 -186 78 -1 1 0
8 4 14 5 8 10 8 21 0 7 -7 19 -10 26 -7 9 4 6 8 -7 12 -11 3 -29 20 -39 38
-11 19 -21 27 -23 20 -3 -7 -11 -13 -18 -13 -20 0 -86 71 -125 135 -31 53 -55
61 -32 12 5 -12 23 -53 38 -91 16 -37 44 -83 62 -102 17 -18 32 -42 32 -53 0
-26 76 -126 142 -186 119 -108 166 -143 247 -184 47 -23 90 -46 97 -52 18 -15
220 -79 272 -86 26 -3 52 -10 58 -15 27 -20 292 17 351 50 12 7 27 12 34 12
20 0 146 78 234 144 44 34 88 66 97 71 9 6 38 25 64 44 60 41 143 71 200 71
34 0 48 -6 73 -31 51 -50 36 -91 -48 -134 l-35 -17 25 -14 c13 -7 36 -11 52
-8 38 8 36 -20 -2 -36 -39 -16 -64 -10 -76 18 -13 30 -23 28 -27 -5 -2 -19 -8
-28 -20 -27 -14 1 -16 -4 -12 -22 5 -20 2 -24 -14 -24 -12 0 -26 8 -32 18 -10
14 -11 13 -6 -8 3 -14 6 -31 6 -39 0 -9 8 -11 25 -7 14 4 25 2 25 -4 0 -5 4
-10 10 -10 5 0 9 9 7 20 -1 13 8 27 25 37 25 16 28 16 47 -1 25 -22 19 -36
-15 -36 -16 0 -24 -5 -21 -12 2 -7 19 -13 37 -13 18 0 35 -6 37 -12 3 -10 -11
-13 -51 -13 -54 0 -73 -11 -40 -24 27 -10 79 -7 92 6 10 10 17 10 32 0 11 -6
28 -12 38 -12 28 0 81 58 88 96 13 71 -17 250 -51 303 -27 44 -103 95 -156
105 -20 3 -44 15 -54 26 -11 12 -31 20 -52 20 -38 0 -40 7 -14 58 35 69 53
186 46 296 -4 54 -11 108 -15 120 -5 12 -20 59 -34 106 -30 101 -77 183 -151
265 -57 64 -91 71 -36 7 153 -178 228 -445 175 -623 -22 -73 -100 -239 -113
-239 -6 0 -16 10 -22 23 -17 31 -28 37 -72 37 -31 0 -39 -4 -47 -25 -6 -15
-17 -25 -29 -25 -24 0 -51 -36 -51 -68 0 -26 -26 -40 -43 -23 -6 6 -16 26 -21
43 -15 45 -73 77 -109 61 -21 -10 -27 -21 -33 -69 -5 -47 -13 -64 -40 -91 -27
-27 -34 -42 -34 -74 0 -34 -7 -47 -48 -88 -54 -54 -165 -111 -216 -111 -35 0
-55 -13 -36 -25 17 -10 11 -25 -9 -25 -11 0 -27 10 -36 23 -17 24 -97 50 -225
73 -36 7 -130 61 -130 75 0 5 14 15 30 24 36 19 40 58 10 90 l-20 22 30 31
c35 37 35 38 12 85 -19 39 -75 87 -103 87 -12 0 -18 12 -22 46 -7 66 -42 95
-106 88 -25 -3 -52 -8 -59 -10 -40 -12 -122 55 -183 149 -31 48 -69 142 -69
171 0 17 108 -9 139 -33 29 -22 45 -26 93 -25 41 1 64 7 78 19 25 23 25 31 0
62 -27 35 -25 52 12 90 28 29 31 36 22 60 -5 16 -30 42 -59 60 -62 41 -90 88
-106 176 -23 126 7 224 124 409 23 37 56 81 72 99 43 46 164 149 174 149 12 0
11 -90 -1 -114 -13 -24 -18 -155 -7 -183 13 -35 26 -27 33 20 8 50 29 85 93
150 79 82 300 217 353 217 9 0 24 6 35 13 11 7 45 20 75 29 30 10 69 22 85 28
29 10 28 10 -8 4 -33 -4 -39 -2 -44 15 -3 12 -9 18 -14 16 -4 -3 -6 -12 -3
-19 7 -18 -18 -37 -36 -26 -12 7 -12 11 1 26 13 16 11 17 -16 12 -17 -3 -38
-9 -48 -13 -32 -14 -18 14 15 29 59 26 283 37 465 21 60 -5 97 -4 105 2 14 12
153 -14 223 -41 22 -8 50 -15 62 -16 31 0 319 -141 394 -193 153 -105 187
-130 234 -172 59 -52 40 -61 -26 -13 -115 85 -123 88 -133 62 -4 -10 5 -25 24
-42 17 -15 53 -48 80 -74 28 -27 52 -48 55 -48 3 0 5 9 5 20 0 11 5 20 11 20
19 0 169 -152 169 -171 0 -29 11 -49 29 -50 9 0 33 -26 53 -57 32 -50 36 -63
31 -100 -7 -51 10 -95 43 -112 13 -8 24 -19 24 -26 0 -23 -12 -44 -25 -44 -7
0 -22 -8 -34 -17 -19 -16 -21 -23 -12 -68 8 -43 17 -57 67 -102 69 -63 108
-73 71 -18 -32 49 -64 169 -48 180 23 13 56 -40 75 -118 16 -70 20 -78 39 -75
20 3 22 8 19 71 -3 67 -3 68 20 65 19 -2 23 -8 21 -35 -2 -18 2 -35 7 -38 6
-3 10 -24 10 -46 0 -40 1 -40 30 -34 22 5 32 3 36 -9 11 -29 33 -17 76 42 24
31 48 60 54 64 7 4 15 19 18 34 4 14 11 24 17 22 17 -6 14 -16 -35 -102 -26
-47 -49 -102 -52 -127 -8 -58 15 -114 56 -137 17 -9 30 -25 30 -36 0 -30 72
-91 122 -105 51 -14 122 -4 213 30 27 10 53 15 58 10 12 -12 -56 -49 -132 -70
-54 -15 -65 -22 -63 -37 2 -11 6 -36 9 -56 5 -35 8 -38 38 -38 18 0 38 -7 45
-15 17 -20 22 -15 74 63 48 71 80 112 90 112 15 0 3 -31 -35 -89 -22 -34 -47
-81 -55 -104 -29 -81 16 -187 78 -187 12 0 23 -10 29 -27 5 -16 26 -39 45 -53
31 -21 48 -24 118 -25 75 0 88 3 160 38 74 37 78 38 91 20 10 -14 11 -21 2
-32 -10 -12 -12 -12 -15 2 -4 19 -18 22 -27 8 -3 -6 -39 -26 -80 -46 -70 -33
-90 -55 -65 -70 6 -3 10 -20 10 -36 0 -33 3 -35 72 -44 l47 -6 47 98 c54 113
51 110 64 97 6 -6 0 -29 -15 -62 -57 -124 -63 -186 -24 -263 22 -44 40 -60 82
-69 20 -4 31 -12 28 -21 -2 -8 -5 -31 -8 -51 -7 -48 29 -123 71 -149 67 -41
175 -32 229 19 50 47 61 78 66 202 l6 115 23 -42 c12 -23 22 -57 22 -75 0 -18
7 -41 15 -51 10 -15 11 -25 3 -43 -8 -17 -8 -27 1 -38 8 -10 10 -24 5 -38 -5
-13 -7 -44 -5 -70 2 -29 -3 -60 -13 -79 -20 -40 -20 -41 2 -38 31 3 42 -1 42
-15 0 -7 24 -36 54 -64 74 -70 142 -91 221 -67 125 36 185 174 125 286 -17 30
-65 58 -131 75 -71 18 -87 28 -100 61 -5 13 -13 23 -19 23 -16 0 -12 -32 9
-72 18 -37 18 -38 -1 -55 -54 -49 -63 -124 -22 -173 22 -26 33 -31 63 -28 29
2 37 8 39 26 4 26 -19 30 -38 7 -18 -21 -36 -19 -54 7 -46 65 16 171 105 180
18 2 24 -2 24 -16 0 -13 10 -22 28 -27 55 -15 77 -56 37 -66 -26 -7 -26 -40
-1 -48 35 -11 37 -45 5 -70 -16 -13 -26 -26 -22 -30 23 -24 -51 -75 -107 -75
-38 0 -108 35 -149 74 -37 34 -49 70 -21 60 21 -9 19 10 -5 31 -29 27 -44 80
-31 116 6 16 8 43 5 59 -5 21 -2 31 14 39 19 10 18 13 -14 108 -28 81 -74 172
-138 275 -24 40 11 27 107 -38 71 -48 106 -79 116 -101 11 -24 21 -33 45 -35
39 -4 67 -50 75 -126 6 -61 21 -71 34 -22 4 16 13 30 19 30 19 0 186 -130 217
-168 48 -62 61 -97 61 -164 0 -35 -4 -69 -9 -76 -4 -7 -30 -27 -56 -45 -48
-31 -58 -43 -70 -81 -5 -17 -12 -18 -72 -13 -59 6 -70 4 -89 -14 -29 -27 -56
-18 -80 26 -18 34 -46 46 -59 25 -13 -21 -45 -8 -76 30 -29 36 -37 40 -76 40
-48 0 -58 -15 -15 -23 17 -3 53 -31 88 -67 81 -83 137 -110 231 -110 59 0 84
5 123 25 27 14 51 21 54 17 2 -4 -26 -44 -64 -90 -81 -100 -109 -154 -90 -177
7 -8 17 -15 23 -15 5 0 28 -20 51 -44 56 -60 105 -69 174 -31 l49 27 34 -21
c37 -23 103 -28 141 -10 13 5 33 24 43 40 11 17 35 37 53 44 17 8 32 19 32 25
0 17 -49 90 -111 167 -52 63 -74 103 -51 91 68 -35 90 -40 172 -36 106 5 150
27 227 109 31 32 64 59 74 59 11 0 19 7 19 15 0 10 -10 15 -32 15 -24 0 -40
-10 -74 -47 -42 -46 -44 -46 -63 -29 -26 24 -46 15 -72 -29 -24 -40 -62 -48
-79 -16 -9 18 -18 19 -79 14 l-69 -6 -16 32 c-9 17 -39 47 -65 66 -39 28 -51
44 -60 78 -18 73 19 166 96 238 46 44 173 139 184 139 5 0 9 -9 9 -19 0 -30
11 -51 26 -51 10 0 13 14 11 58 -3 72 26 119 76 124 23 2 33 9 35 23 2 11 10
27 18 36 23 26 213 153 220 147 3 -4 -18 -46 -47 -94 -29 -48 -67 -128 -85
-178 -17 -50 -35 -99 -39 -108 -8 -21 1 -38 22 -38 12 0 14 -7 9 -34 -4 -19
-1 -45 5 -60 14 -30 0 -71 -39 -117 -23 -28 -23 -29 -3 -29 24 0 25 -4 11 -30
-17 -32 -92 -77 -151 -90 -51 -11 -59 -11 -97 9 -27 14 -42 28 -42 40 0 30
-11 51 -26 51 -22 0 -17 48 6 62 23 15 27 48 6 48 -8 0 -18 5 -22 12 -10 16
42 58 73 58 22 0 24 2 13 15 -24 29 3 37 52 16 74 -32 112 -95 86 -147 -20
-42 -43 -52 -68 -29 -15 13 -24 15 -31 8 -15 -15 -3 -32 28 -44 33 -12 68 9
90 56 20 42 7 97 -33 140 -24 26 -25 28 -10 60 28 58 20 73 -16 34 -27 -29
-43 -37 -84 -43 -92 -12 -150 -68 -161 -153 -8 -75 30 -152 95 -191 61 -35
145 -37 210 -3 51 26 122 94 122 117 0 12 7 14 30 9 33 -7 37 1 15 31 -9 12
-14 43 -15 82 0 35 -5 73 -11 84 -9 18 -8 24 7 35 14 10 15 16 6 25 -17 17
-15 55 3 62 9 3 15 18 15 34 0 33 17 90 34 111 8 11 12 -14 16 -100 5 -106 8
-117 35 -159 17 -25 46 -53 65 -62 42 -21 118 -23 163 -4 74 30 122 125 96
188 -14 34 -17 30 43 56 65 28 88 68 88 152 0 52 -7 81 -34 142 -18 42 -31 80
-28 83 10 10 20 5 26 -12 3 -10 10 -25 16 -33 5 -8 24 -46 40 -84 25 -56 33
-67 48 -61 9 5 35 11 57 14 35 5 40 9 43 36 2 17 8 34 13 40 20 20 6 36 -63
68 -40 18 -79 41 -87 50 -10 13 -18 14 -32 6 -22 -11 -26 3 -6 19 10 8 32 2
85 -25 55 -27 89 -37 141 -41 90 -6 132 9 178 64 21 24 45 44 54 44 10 0 29
14 43 31 22 26 26 40 26 93 0 56 -5 70 -51 150 -71 124 -49 132 31 11 34 -52
68 -95 75 -95 7 0 18 7 25 15 7 8 26 15 42 15 26 0 29 3 28 33 -1 17 2 43 5
57 6 24 3 26 -50 37 -59 13 -145 51 -145 65 0 12 19 9 80 -12 72 -25 171 -26
226 -1 45 20 84 63 84 92 0 11 13 25 31 34 55 29 68 92 43 208 -8 33 10 36 42
6 16 -15 28 -19 41 -14 10 5 31 9 48 9 26 1 30 6 36 36 4 19 14 58 21 85 12
43 18 50 41 53 15 2 27 -1 27 -7 0 -5 -13 -47 -29 -92 -16 -46 -27 -87 -25
-91 7 -11 108 67 122 94 17 36 25 107 13 122 -8 10 -6 18 9 31 11 10 20 31 20
46 0 18 7 32 20 39 23 12 50 60 50 88 0 11 10 31 21 46 12 15 19 29 16 32 -3
3 -10 -4 -17 -15 -16 -31 -25 -26 -45 25 -13 34 -14 49 -6 57 8 8 15 7 28 -5
15 -16 19 -15 48 10 18 15 40 32 50 37 15 9 16 14 6 34 -11 19 -9 29 11 68 27
54 73 87 88 63 8 -12 16 -9 47 21 21 20 53 46 71 58 38 27 58 59 44 73 -6 6
-28 -3 -61 -27 -51 -37 -69 -40 -58 -11 9 23 153 128 257 187 93 53 291 149
309 149 5 0 42 11 82 24 100 33 204 49 228 37 21 -12 123 -8 200 8 69 14 162
14 198 0 15 -6 53 -11 85 -10 57 1 128 -21 128 -39 0 -13 -27 -13 -35 0 -3 6
-15 10 -25 10 -15 0 -19 -6 -17 -22 1 -17 -3 -23 -18 -23 -15 0 -19 6 -18 22
3 22 2 22 -16 5 -10 -9 -15 -20 -11 -25 7 -8 87 -40 156 -62 185 -59 405 -240
435 -357 25 -94 52 -33 37 83 -19 158 -20 179 -8 179 19 0 143 -104 183 -153
19 -23 56 -76 82 -117 124 -193 146 -276 110 -415 -20 -74 -50 -119 -95 -142
-42 -22 -69 -52 -70 -77 0 -10 13 -33 29 -52 31 -34 32 -62 5 -85 -19 -16 -17
-43 4 -62 13 -12 37 -17 79 -17 52 0 65 4 98 30 23 18 51 31 71 32 19 0 40 1
47 2 45 4 -43 -183 -126 -268 l-58 -59 -85 6 c-104 6 -122 -4 -132 -78 -7 -46
-9 -50 -41 -56 -41 -8 -75 -41 -96 -91 -15 -38 -15 -38 15 -69 36 -38 36 -41
10 -64 -27 -25 -25 -41 10 -77 17 -16 30 -34 30 -39 0 -11 -77 -52 -115 -60
-135 -30 -213 -55 -236 -76 -33 -30 -49 -29 -49 2 0 22 -4 25 -35 25 -40 0
-130 37 -179 75 -46 35 -90 100 -82 121 7 18 -37 94 -54 94 -5 0 -12 27 -16
60 -7 67 -21 83 -66 82 -37 -1 -76 -35 -86 -76 -6 -21 -15 -32 -30 -34 -12 -2
-22 2 -22 8 0 26 -33 80 -53 86 -12 4 -32 17 -44 30 -36 38 -95 27 -113 -22
-5 -13 -14 -24 -20 -24 -9 0 -49 78 -91 175 -43 102 -54 258 -25 350 9 28 16
59 16 70 0 38 89 200 141 258 33 38 48 62 42 68 -14 14 -150 -152 -184 -226
-81 -172 -104 -419 -53 -560 41 -114 41 -115 7 -115 -19 0 -37 -9 -51 -25 -12
-14 -31 -25 -42 -25 -27 0 -97 -33 -132 -62 -32 -28 -42 -53 -69 -171 -27
-122 -19 -189 26 -234 35 -35 54 -40 87 -22 14 8 23 8 31 0 14 -14 97 -15 97
-1 0 6 -23 10 -51 10 -76 0 -59 24 19 28 67 3 86 19 23 19 -63 0 -82 25 -39
52 19 12 23 11 33 -3 7 -9 19 -16 28 -16 9 0 20 -7 25 -17 13 -22 38 -10 44
21 6 31 -11 46 -24 22 -13 -23 -31 -20 -25 4 4 15 0 20 -14 20 -12 0 -19 7
-19 18 0 32 -13 34 -35 6 -20 -25 -23 -26 -58 -15 -47 16 -49 41 -4 41 46 0
65 14 48 34 -8 9 -19 16 -26 16 -22 0 -65 48 -65 73 0 27 14 47 50 71 54 36
160 9 260 -65 19 -14 51 -34 71 -43 20 -9 45 -25 55 -34 42 -38 127 -102 136
-102 5 0 32 -16 61 -35 28 -19 61 -35 72 -35 12 0 26 -5 33 -12 6 -6 30 -15
54 -19 24 -4 63 -13 88 -19 70 -17 170 -21 225 -9 60 12 153 37 180 49 11 4
46 16 77 25 31 9 62 23 69 31 6 8 17 14 24 14 26 0 148 70 194 111 154 137
188 169 222 215 22 28 39 60 39 72 0 12 9 26 19 31 29 16 133 241 111 241 -5
0 -23 -24 -40 -52 -52 -87 -130 -157 -130 -118 0 20 -17 10 -29 -17 -9 -19 -9
-29 -2 -31 22 -7 9 -24 -51 -62 -58 -38 -122 -53 -141 -33 -12 12 15 33 42 33
31 0 51 16 51 42 0 11 -7 18 -19 18 -44 0 -26 17 30 29 49 10 62 17 69 36 10
25 35 34 42 14 2 -6 36 27 76 73 40 45 84 97 99 113 21 25 28 48 39 130 7 55
13 127 13 160 0 69 -17 165 -29 165 -4 0 -11 -33 -15 -74 -7 -76 -29 -136 -54
-144 -14 -5 -14 0 9 141 15 96 11 142 -15 142 -17 0 -21 -9 -27 -59 -4 -33
-12 -64 -18 -70 -5 -5 -10 -19 -10 -29 0 -28 -67 -135 -89 -142 -20 -6 -51 3
-51 14 0 4 13 17 30 29 37 28 63 77 55 103 -5 14 0 28 13 42 26 30 42 61 42
86 0 31 -13 25 -35 -16 -23 -42 -65 -75 -65 -51 0 8 11 27 24 41 13 14 29 48
36 76 7 28 16 54 21 57 13 8 11 71 -3 94 -9 15 -10 22 -1 31 18 18 29 3 43
-59 11 -52 14 -58 34 -55 16 4 25 -2 34 -23 21 -45 25 -19 7 38 -10 29 -26 61
-37 71 -12 12 -17 26 -12 39 4 14 -2 28 -19 46 -14 15 -29 40 -33 55 -3 16
-15 34 -26 40 -11 7 -31 34 -44 60 -36 69 -109 166 -157 209 -33 28 -39 39
-30 49 10 9 18 5 40 -19 27 -31 53 -42 53 -22 0 19 -75 60 -111 60 -22 0 -47
8 -63 21 -22 17 -26 28 -26 71 l0 50 40 -7 c34 -6 43 -3 65 19 25 25 33 60 15
71 -5 3 -21 -8 -36 -25 -30 -33 -67 -39 -98 -15 -29 22 -33 19 -32 -22 1 -32
-3 -39 -21 -41 -32 -5 -111 40 -171 97 -63 59 -66 85 -12 88 19 1 48 5 64 9
25 6 27 4 22 -12 -7 -23 -1 -32 42 -62 38 -27 49 -24 32 8 -21 38 -7 49 61 46
44 -1 65 -7 74 -19 15 -21 35 -22 35 -2 0 8 6 15 14 15 9 0 12 7 9 20 -4 16 0
20 20 20 14 0 52 7 84 16 57 16 118 25 159 25 12 -1 27 6 34 14 7 8 18 15 25
15 33 0 64 43 90 125 25 77 26 90 15 133 -22 90 -72 152 -134 168 -19 5 -26 2
-26 -9 0 -22 -88 -63 -103 -48 -13 13 -13 13 43 45 l45 26 -47 0 c-104 0 -198
-79 -198 -166 0 -24 4 -45 9 -48 5 -3 12 -22 16 -42 7 -42 29 -80 50 -88 25
-9 75 15 91 45 8 16 19 29 24 29 11 0 40 29 40 40 0 4 -9 10 -21 13 -29 8 -18
32 14 32 34 0 41 9 27 35 -11 20 -10 21 8 16 15 -5 22 -1 27 14 14 45 85 8 85
-45 0 -35 -43 -103 -105 -166 -68 -69 -98 -87 -205 -119 -68 -21 -95 -23 -300
-24 -126 -1 -300 6 -395 14 -236 21 -360 17 -550 -14 -173 -29 -193 -34 -364
-95 -165 -59 -364 -170 -519 -288 -45 -35 -87 -63 -92 -63 -5 0 -14 9 -20 20
-6 11 -19 20 -30 20 -33 0 -34 21 -1 47 42 33 61 73 61 128 0 57 -29 115 -75
152 -19 15 -35 31 -35 34 0 3 21 20 46 37 73 52 102 140 70 215 -29 67 -85 97
-210 111 -31 4 -58 14 -73 28 -22 20 -23 21 -23 2 0 -10 9 -34 21 -53 l20 -34
-22 -41 c-30 -57 -21 -109 24 -136 41 -25 89 -26 111 -1 24 26 13 61 -19 61
-18 0 -24 -6 -27 -27 -6 -56 -78 -29 -78 29 0 38 22 88 50 113 l22 20 18 -22
c14 -18 24 -21 54 -16 35 5 36 5 36 -26 0 -24 6 -34 24 -43 32 -14 35 -22 28
-86 -4 -46 -9 -56 -40 -80 -32 -24 -44 -27 -116 -27 -63 0 -89 4 -115 20 -32
19 -40 42 -13 39 23 -3 12 11 -28 34 -27 15 -42 31 -45 50 -3 15 -13 50 -21
77 -9 28 -18 82 -21 120 -5 60 -2 77 17 115 12 25 34 58 49 73 24 26 25 29 9
38 -19 10 -24 44 -9 53 4 3 11 18 15 33 3 17 19 36 38 49 22 13 32 26 30 38
-4 22 14 36 45 36 12 0 27 9 33 20 14 26 65 26 108 0 34 -21 62 -72 62 -113 0
-37 -36 -77 -70 -77 -15 0 -33 -7 -40 -15 -7 -8 -28 -15 -46 -15 -39 0 -70 36
-59 70 8 24 21 26 33 4 11 -21 46 -14 50 9 2 10 -2 24 -8 32 -35 42 -117 -13
-106 -69 9 -41 42 -74 89 -87 97 -26 178 43 180 151 1 87 -72 150 -176 150
-97 0 -179 -76 -229 -212 -11 -32 -25 -58 -29 -58 -13 0 -11 108 2 116 7 4 8
20 4 41 -5 29 -3 38 15 50 15 10 20 22 16 36 -3 12 3 30 15 45 10 14 19 34 19
45 0 26 37 84 61 97 25 14 24 30 -1 30 -11 0 -22 6 -24 13 -2 6 -9 32 -16 55
-13 48 -79 128 -120 145 -14 6 -52 13 -85 17 l-60 6 37 17 c53 24 215 43 251
28 31 -12 36 -44 10 -73 -23 -25 -9 -34 22 -14 34 22 33 65 -1 97 -23 21 -36
24 -117 26 -69 2 -105 -2 -143 -16z m-7392 -946 c0 -5 -5 -11 -11 -13 -6 -2
-11 4 -11 13 0 9 5 15 11 13 6 -2 11 -8 11 -13z m10238 -4 c0 -12 -20 -25 -27
-18 -7 7 6 27 18 27 5 0 9 -4 9 -9z m-9025 -382 c5 -5 37 -9 71 -9 53 0 86
-11 73 -25 -2 -2 -80 2 -172 8 -169 11 -190 9 -397 -25 -91 -15 -179 -44 -222
-73 -37 -25 -88 -34 -88 -15 0 27 62 62 165 94 136 42 161 46 305 53 63 2 117
6 119 9 7 7 135 -8 146 -17z m8126 1 c66 -7 136 -22 191 -40 47 -17 95 -30
105 -30 23 0 93 -57 93 -76 0 -22 -36 -17 -78 11 -44 29 -109 53 -177 66 -229
42 -338 49 -520 31 -60 -6 -112 -9 -114 -6 -13 12 23 26 80 31 35 3 71 9 79
14 21 12 218 11 341 -1z m-1528 -31 c12 -6 34 -23 50 -37 23 -22 27 -34 27
-80 0 -43 -4 -57 -21 -71 -12 -9 -22 -28 -23 -42 -1 -20 -6 -24 -33 -24 -20 0
-37 -7 -46 -20 -22 -29 -59 -8 -86 48 -26 53 -21 90 15 114 29 19 54 11 48
-15 -6 -22 20 -47 41 -38 24 9 18 53 -9 71 -20 13 -32 14 -65 5 -68 -18 -91
-92 -51 -158 l21 -34 -21 -42 c-32 -67 -27 -81 17 -47 38 31 107 37 167 16 79
-28 86 -55 31 -111 -55 -54 -129 -75 -269 -75 -96 0 -129 -13 -139 -51 -6 -23
13 -67 38 -88 8 -7 29 -33 46 -58 l30 -44 -28 -41 c-15 -22 -48 -78 -73 -125
-40 -75 -49 -87 -80 -95 -19 -5 -47 -20 -63 -33 -33 -28 -28 -27 -92 -10 -59
15 -90 8 -120 -29 -19 -23 -23 -24 -40 -11 -20 14 -20 15 0 40 87 110 228 302
258 353 89 146 177 385 177 477 0 18 3 36 7 40 4 4 8 23 9 41 1 38 25 72 64
88 20 8 22 11 8 14 -20 5 -24 28 -7 38 5 4 34 15 62 26 59 21 118 24 150 8z
m-5170 -38 c29 -12 47 -27 47 -37 0 -12 -6 -15 -26 -10 -17 5 -23 3 -19 -4 3
-5 12 -10 20 -10 7 0 27 -14 44 -31 22 -22 31 -40 31 -64 0 -19 5 -37 10 -40
6 -3 10 -24 10 -46 0 -52 58 -225 120 -356 170 -361 800 -1041 1368 -1475 76
-59 128 -135 143 -209 10 -50 9 -61 -10 -103 -14 -34 -17 -48 -8 -50 7 -2 19
-6 28 -9 24 -8 23 -103 -2 -135 -18 -23 -18 -25 -2 -37 17 -13 17 -14 -1 -34
-11 -12 -25 -21 -33 -21 -7 0 -13 -6 -13 -14 0 -31 -30 -46 -89 -46 -48 0 -63
4 -85 25 -26 24 -46 63 -46 90 0 17 76 97 107 114 35 18 62 13 75 -13 6 -14 8
-32 4 -41 -5 -14 -9 -15 -22 -4 -12 10 -18 9 -32 -4 -15 -16 -15 -19 5 -39 19
-18 26 -20 47 -10 14 6 28 23 32 37 17 67 -34 115 -123 115 -32 0 -53 5 -56
13 -4 8 -12 5 -24 -11 -26 -31 -69 -26 -96 10 -35 47 -34 127 2 239 35 109 38
135 15 167 -21 31 -52 28 -154 -13 -114 -46 -225 -61 -280 -39 -50 20 -57 40
-25 74 25 27 33 50 15 50 -5 0 -26 -11 -46 -25 -33 -22 -40 -24 -58 -11 -48
31 -28 149 46 277 47 82 49 125 6 148 -24 14 -34 13 -100 -3 -84 -20 -220 -32
-270 -22 -35 6 -78 38 -78 57 0 6 14 23 30 37 50 44 34 72 -17 32 -57 -45 -87
-18 -81 74 3 53 13 83 57 170 29 58 56 106 61 106 17 0 39 -32 46 -65 4 -21 0
-52 -10 -81 -9 -26 -16 -61 -16 -77 0 -41 33 -90 74 -112 30 -16 40 -17 75 -7
74 23 99 87 53 134 -38 39 -132 12 -155 -44 l-14 -33 -8 28 c-6 22 -1 42 20
83 23 45 27 62 21 101 -7 52 -25 77 -76 104 -19 10 -45 23 -57 30 -18 9 -42 8
-122 -8 l-100 -19 -36 43 c-23 28 -46 44 -68 48 -28 6 -39 19 -84 96 -29 49
-53 95 -53 103 0 7 31 49 69 93 80 93 94 117 86 142 -12 38 -46 49 -151 50
-150 1 -220 17 -271 64 -40 36 -21 117 28 117 10 0 21 5 25 11 11 18 131 5
155 -16 29 -27 33 -12 10 35 -20 41 -20 42 0 73 11 19 19 50 19 75 0 36 -6 49
-31 73 -20 19 -42 29 -62 29 -53 0 -87 -51 -53 -79 22 -18 46 -2 46 30 0 38
30 39 59 3 33 -42 26 -89 -22 -141 -23 -26 -57 -30 -57 -8 0 12 -10 15 -42 13
-41 -3 -43 -2 -40 24 2 20 -5 32 -28 48 -29 21 -31 25 -25 69 10 71 12 75 57
105 38 25 50 27 103 23 33 -3 81 -14 108 -26z m-2028 -101 c-21 -23 -45 -26
-45 -6 0 16 15 24 44 25 18 1 18 0 1 -19z m9016 0 l24 -19 -26 -1 c-27 0 -54
21 -42 33 10 11 19 8 44 -13z m-9113 -32 c-5 -13 -127 -32 -138 -22 -3 3 4 12
14 20 25 18 129 20 124 2z m9293 -8 l24 -20 -69 3 c-101 3 -100 28 0 36 12 0
32 -8 45 -19z m-9381 -39 c0 -14 -18 -23 -30 -16 -6 4 -8 11 -5 16 8 12 35 12
35 0z m9385 -10 c3 -5 1 -12 -4 -15 -12 -8 -41 3 -41 15 0 12 37 12 45 0z
m-9437 -83 c-6 -18 -28 -21 -28 -4 0 9 7 16 16 16 9 0 14 -5 12 -12z m9480
-12 c3 -12 -1 -17 -10 -14 -7 3 -15 13 -16 22 -3 12 1 17 10 14 7 -3 15 -13
16 -22z m-2139 -262 c21 -7 -7 -34 -36 -34 -22 0 -114 19 -122 26 -1 1 0 7 3
13 6 9 120 6 155 -5z m-5002 -19 c-5 -14 -117 -37 -176 -35 -25 0 -64 27 -57
39 7 10 236 7 233 -4z m4862 -57 c22 -24 41 -51 41 -61 0 -16 -5 -15 -34 10
-38 32 -69 77 -59 87 9 9 9 9 52 -36z m-4849 23 c0 -5 -9 -11 -20 -14 -20 -5
-26 3 -13 16 9 10 33 8 33 -2z m40 -18 c0 -16 -140 -154 -150 -148 -21 13 -8
36 57 94 62 55 93 74 93 54z m-160 -173 c0 -11 -4 -20 -9 -20 -11 0 -22 26
-14 34 12 12 23 5 23 -14z m5003 14 c7 -7 -44 -74 -55 -74 -14 0 -8 20 14 50
22 30 30 35 41 24z m32 -64 c19 -36 19 -70 2 -95 -15 -20 -48 -17 -82 9 -17
13 -18 18 -7 33 7 10 22 33 33 51 26 40 34 40 54 2z m-4988 -108 c6 -27 0 -37
-21 -29 -19 7 -31 50 -21 74 6 17 8 17 21 -2 8 -11 17 -30 21 -43z m4921 -28
c24 -17 29 -43 10 -62 -18 -18 -43 -15 -63 8 -15 17 -16 24 -7 45 13 29 29 31
60 9z m-4744 -90 c10 -27 7 -34 -18 -34 -22 0 -36 16 -36 41 0 16 48 10 54 -7z
m4566 6 c0 -5 -7 -10 -16 -10 -8 0 -12 5 -9 10 3 6 10 10 16 10 5 0 9 -4 9
-10z m-113 -44 c-11 -22 -12 -23 -33 -7 -27 20 -22 31 16 31 26 0 27 -2 17
-24z m-4229 -7 c-5 -14 -137 -71 -149 -63 -23 14 -4 31 54 51 71 24 100 28 95
12z m4152 -9 c-12 -8 -11 -13 7 -32 25 -27 39 -68 24 -68 -10 0 -71 76 -71 89
0 8 43 28 50 23 2 -1 -2 -7 -10 -12z m165 10 c31 -12 24 -30 -10 -30 -26 0
-40 14 -30 30 8 12 8 12 40 0z m-4716 -47 c50 -75 36 -111 -21 -56 -27 26 -39
79 -21 96 9 10 9 11 42 -40z m4439 24 c6 -5 12 -22 12 -38 0 -31 61 -109 86
-109 37 0 60 -152 28 -184 -21 -21 -36 -20 -68 5 -25 20 -56 20 -56 1 0 -4 14
-18 31 -31 106 -79 -97 -133 -302 -81 -71 18 -82 19 -108 6 -46 -25 -44 -46
17 -166 45 -88 57 -122 60 -170 4 -48 1 -65 -13 -80 -24 -26 -41 -25 -77 5
-16 14 -34 25 -39 25 -20 0 -7 -39 19 -59 22 -16 25 -23 16 -38 -18 -30 -98
-52 -147 -40 -84 19 -183 49 -224 68 -53 24 -78 24 -103 -1 -26 -26 -25 -56 5
-137 44 -116 44 -257 -1 -293 -21 -19 -63 -15 -79 6 -11 15 -16 17 -26 7 -8
-8 -38 -13 -72 -13 -51 0 -62 -4 -88 -29 -34 -35 -37 -68 -8 -105 23 -29 50
-34 69 -11 22 26 8 50 -28 47 -37 -2 -43 19 -15 50 28 32 69 20 132 -39 56
-53 41 -132 -32 -167 -56 -26 -137 -17 -137 15 0 12 -10 23 -25 29 -28 11 -45
42 -27 48 17 5 15 20 -7 48 -15 19 -19 38 -17 77 2 45 6 52 24 55 26 4 27 9 7
55 -27 66 -13 140 41 219 16 22 127 122 249 221 121 100 297 258 392 350 l172
169 31 -25 c48 -41 90 -44 152 -12 60 31 88 53 88 69 0 6 -14 38 -30 70 -36
71 -39 122 -9 160 34 43 71 51 107 23z m490 -1 c6 -29 -17 -71 -48 -89 -40
-24 -48 -5 -18 41 14 20 27 45 31 55 8 22 31 17 35 -7z m-428 -42 c0 -8 -4
-14 -10 -14 -5 0 -10 9 -10 21 0 11 5 17 10 14 6 -3 10 -13 10 -21z m-4110 12
c0 -3 -4 -8 -10 -11 -5 -3 -10 -1 -10 4 0 6 5 11 10 11 6 0 10 -2 10 -4z
m3883 -108 c2 -13 8 -31 12 -40 5 -13 0 -19 -20 -24 -34 -8 -75 -46 -75 -69 0
-15 6 -17 35 -12 36 6 58 -9 34 -24 -19 -12 -63 -11 -93 2 -44 20 -39 44 26
119 33 39 63 70 68 70 4 0 10 -10 13 -22z m-3562 -79 c21 -21 22 -60 2 -67 -8
-2 -13 6 -13 22 0 19 -7 29 -25 36 -14 5 -25 14 -25 20 0 18 39 11 61 -11z
m3419 -279 c0 -5 -5 -10 -11 -10 -5 0 -7 5 -4 10 3 6 8 10 11 10 2 0 4 -4 4
-10z m-3280 -30 c0 -5 -4 -10 -10 -10 -5 0 -10 5 -10 10 0 6 5 10 10 10 6 0
10 -4 10 -10z m-2125 -134 c8 -25 7 -31 -13 -44 -27 -18 -28 -32 -2 -32 30 0
24 -29 -8 -43 -28 -12 -80 -66 -142 -146 -37 -47 -52 -40 -27 12 9 18 21 67
27 110 11 88 24 119 44 111 9 -3 22 6 33 23 9 15 22 31 28 36 20 15 50 2 60
-27z m7526 -5 c11 -14 30 -28 42 -31 24 -6 33 -35 47 -142 5 -37 16 -78 26
-93 22 -34 8 -47 -18 -15 -84 106 -127 150 -155 160 -38 13 -47 50 -13 50 11
0 20 4 20 9 0 5 -9 13 -20 16 -41 13 -11 89 31 78 11 -3 29 -17 40 -32z
m-7339 -26 c-3 -14 -55 -26 -65 -16 -5 5 -6 14 -2 21 8 14 71 9 67 -5z m7116
9 c12 -4 22 -13 22 -20 0 -17 -33 -18 -62 -3 -17 9 -18 13 -7 20 17 10 18 10
47 3z m-7003 -53 c3 -5 1 -13 -5 -16 -15 -9 -43 3 -35 15 8 13 32 13 40 1z
m-1663 -28 c27 -26 28 -26 47 -8 26 23 55 13 46 -16 -5 -15 1 -29 20 -49 18
-18 25 -35 21 -45 -6 -15 -9 -15 -37 3 -44 27 -149 121 -149 133 0 17 24 9 52
-18z m8538 17 c0 -5 -7 -10 -15 -10 -8 0 -15 5 -15 10 0 6 7 10 15 10 8 0 15
-4 15 -10z m1680 -10 c0 -11 -60 -68 -119 -112 -61 -46 -81 -33 -36 26 16 21
22 39 18 54 -4 17 -1 22 14 22 10 0 24 -5 30 -11 9 -9 20 -6 45 9 37 24 48 27
48 12z m-10060 -40 c0 -5 -4 -10 -10 -10 -5 0 -10 5 -10 10 0 6 5 10 10 10 6
0 10 -4 10 -10z m975 -1 c10 -16 -23 -96 -48 -116 -41 -34 -51 -51 -37 -68 17
-20 5 -51 -14 -36 -27 22 -28 60 -4 91 48 60 58 74 58 88 0 19 19 52 30 52 5
0 12 -5 15 -11z m7933 -1 c7 -7 12 -20 12 -29 0 -9 20 -44 45 -77 25 -33 45
-64 45 -68 0 -5 -9 -20 -20 -34 -15 -20 -21 -23 -31 -12 -10 9 -10 15 -1 24
20 20 14 45 -17 70 -34 27 -61 77 -61 113 0 27 9 32 28 13z m972 -3 c0 -8 -4
-15 -10 -15 -5 0 -10 7 -10 15 0 8 5 15 10 15 6 0 10 -7 10 -15z m-9044 -75
c17 0 19 -31 2 -48 -26 -26 -38 -13 -38 41 0 59 13 87 18 38 2 -19 9 -31 18
-31z m8220 -2 c1 -56 -16 -73 -44 -44 -16 16 -16 18 1 30 9 7 17 24 17 38 0
26 9 42 19 32 3 -3 6 -28 7 -56z m-8226 -117 c0 -18 -37 -49 -77 -64 -49 -19
-66 -7 -28 20 14 10 36 26 48 35 24 19 57 24 57 9z m8245 -11 c10 -11 26 -20
35 -20 21 0 44 -25 36 -39 -15 -24 -116 32 -116 64 0 21 24 18 45 -5z m-8795
-71 c19 -6 51 -14 70 -17 19 -4 34 -12 33 -17 -3 -15 -41 -18 -71 -7 -15 5
-46 15 -69 22 -25 8 -43 19 -43 28 0 10 6 12 23 7 12 -3 38 -11 57 -16z m9372
6 c2 -19 -97 -55 -150 -55 -56 0 -35 17 43 35 42 10 78 22 81 27 7 11 25 6 26
-7z m-8012 -90 c0 -8 -4 -15 -9 -15 -13 0 -22 16 -14 24 11 11 23 6 23 -9z
m6600 -5 c0 -5 -7 -10 -15 -10 -8 0 -15 5 -15 10 0 6 7 10 15 10 8 0 15 -4 15
-10z m-3232 -742 c17 -35 61 -101 98 -147 93 -118 111 -169 80 -229 -35 -68
-99 -89 -156 -50 -48 32 -54 86 -14 123 24 23 25 25 7 25 -11 0 -28 -9 -38
-20 l-18 -20 -19 20 c-18 19 -38 27 -38 14 0 -4 7 -12 16 -19 11 -8 17 -26 17
-55 0 -36 -5 -48 -29 -67 -24 -20 -37 -23 -74 -20 -52 6 -85 38 -96 93 -10 56
10 104 95 217 43 58 87 126 96 151 10 25 23 46 30 46 7 0 26 -28 43 -62z"/>
<path d="M8907 3622 c-48 -52 19 -116 84 -82 23 13 26 62 3 84 -21 22 -67 20
-87 -2z"/>
<path d="M4382 3595 c-24 -30 -19 -60 13 -81 41 -27 95 2 95 50 0 22 -40 56
-66 56 -12 0 -31 -11 -42 -25z"/>
<path d="M5269 2589 c-26 -26 -21 -57 12 -82 24 -17 30 -18 55 -6 39 19 46 70
12 93 -30 22 -54 20 -79 -5z"/>
<path d="M5727 2192 c-35 -39 -10 -92 43 -92 56 0 82 64 38 94 -30 21 -61 20
-81 -2z"/>
<path d="M8022 2608 c-21 -21 -14 -66 14 -84 54 -36 122 29 79 76 -20 22 -74
27 -93 8z"/>
<path d="M7569 2209 c-35 -35 -6 -99 46 -99 34 0 65 28 65 60 0 54 -71 79
-111 39z"/>
<path d="M6577 1112 c-21 -23 -22 -55 -2 -72 30 -25 76 9 60 46 -5 11 -9 23
-9 29 -2 18 -32 16 -49 -3z"/>
<path d="M6786 1105 c-22 -33 -20 -52 5 -66 29 -15 69 3 69 31 0 20 -32 60
-49 60 -5 0 -16 -11 -25 -25z"/>
<path d="M5710 4924 c-226 -62 -402 -247 -441 -463 -10 -58 -9 -79 5 -143 27
-121 96 -206 206 -254 64 -27 198 -26 261 2 98 45 157 137 166 260 5 66 3 79
-22 129 -32 66 -80 102 -145 110 -49 6 -93 -10 -98 -36 -2 -13 7 -15 55 -12
73 5 116 -19 143 -80 52 -113 -10 -276 -125 -328 -49 -23 -149 -25 -198 -4
-75 31 -140 113 -161 200 -14 54 -7 169 13 233 68 221 322 388 536 353 81 -13
107 -24 153 -66 59 -53 86 -122 86 -220 -1 -105 -19 -171 -115 -402 -89 -217
-109 -287 -109 -389 0 -113 34 -186 108 -231 53 -33 109 -38 195 -19 128 29
251 120 341 253 24 35 45 61 48 58 7 -7 -45 -225 -83 -347 -34 -112 -75 -208
-88 -208 -15 0 -31 59 -31 112 0 64 22 113 72 165 42 42 44 69 5 57 -32 -9
-76 -53 -100 -99 -32 -59 -31 -193 1 -254 13 -25 21 -53 18 -65 -9 -35 -118
-163 -179 -210 -103 -80 -243 -113 -368 -87 -125 26 -209 120 -209 234 0 94
37 159 112 198 48 24 79 24 111 -1 32 -25 47 -25 47 0 0 25 -49 56 -101 65
-132 22 -265 -126 -245 -274 27 -201 253 -320 506 -267 145 30 304 134 398
260 l22 28 52 -21 c247 -100 541 8 717 263 99 144 141 260 216 601 50 224 87
353 135 468 35 85 112 208 153 246 24 22 29 23 72 12 127 -32 226 -104 270
-196 97 -206 25 -447 -172 -578 -88 -58 -151 -79 -238 -80 -81 0 -125 18 -152
63 -22 37 -43 39 -43 4 0 -36 55 -86 111 -103 164 -49 372 8 513 139 157 147
199 368 105 552 -47 92 -192 195 -319 228 -78 19 -78 19 -52 41 13 10 53 28
89 39 103 32 217 24 266 -18 25 -22 44 -2 25 27 -21 34 -93 56 -178 55 -86 -1
-158 -21 -248 -71 -63 -35 -64 -35 -205 -37 -110 -2 -160 -8 -222 -25 -164
-46 -286 -115 -411 -233 -87 -82 -89 -76 -21 57 29 56 62 101 110 148 54 53
65 69 52 74 -9 3 -33 -2 -52 -11 -165 -79 -336 -365 -398 -666 -42 -204 -206
-430 -372 -512 -56 -27 -79 -33 -135 -33 -63 0 -70 2 -100 32 -67 67 -46 202
73 469 143 323 166 467 96 617 -33 72 -89 123 -177 166 -70 34 -82 36 -185 38
-75 2 -128 -2 -165 -13z m1916 -231 c-146 -174 -211 -331 -296 -714 -91 -408
-142 -524 -298 -670 -114 -108 -235 -150 -371 -128 -67 10 -121 33 -121 49 0
6 13 34 29 63 69 122 136 324 176 527 24 122 24 121 50 69 29 -55 103 -123
152 -140 19 -6 62 -9 94 -7 66 5 100 24 137 78 33 50 28 120 -9 120 -14 0 -19
-7 -19 -27 0 -41 -36 -92 -75 -109 -96 -40 -197 17 -241 137 -20 54 -23 175
-5 249 40 165 172 340 339 447 97 62 179 93 337 126 11 3 57 5 103 6 l83 1
-65 -77z"/>
<path d="M11875 4493 c-27 -9 -81 -18 -120 -22 l-70 -6 30 -16 c48 -26 104
-33 124 -15 9 8 35 22 58 31 23 9 44 23 47 31 7 17 -5 17 -69 -3z"/>
<path d="M2581 4396 c-7 -8 -8 -16 -4 -18 13 -7 93 12 93 23 0 15 -76 11 -89
-5z"/>
<path d="M2798 4403 c7 -3 16 -2 19 1 4 3 -2 6 -13 5 -11 0 -14 -3 -6 -6z"/>
<path d="M2894 4399 c21 -13 122 -21 109 -9 -4 4 -35 11 -68 14 -48 5 -56 4
-41 -5z"/>
<path d="M10675 4401 l-30 -7 40 -12 c22 -7 51 -12 65 -12 l25 1 -24 19 c-25
21 -29 22 -76 11z"/>
<path d="M10371 4391 c-23 -15 3 -19 39 -5 l35 12 -30 1 c-16 0 -36 -3 -44 -8z"/>
<path d="M3076 4373 c-8 -9 66 -43 92 -43 13 0 32 -5 43 -11 11 -5 32 -9 47
-7 21 2 12 8 -43 27 -87 29 -132 40 -139 34z"/>
<path d="M10790 4369 c0 -5 9 -9 20 -9 11 0 20 2 20 4 0 2 -9 6 -20 9 -11 3
-20 1 -20 -4z"/>
<path d="M10195 4363 c-11 -3 -54 -17 -95 -33 -41 -16 -92 -31 -112 -35 -21
-3 -38 -10 -38 -15 0 -18 35 -10 163 36 20 8 48 14 62 14 13 0 27 5 30 11 4 6
17 14 29 19 20 8 20 9 1 8 -11 0 -29 -2 -40 -5z"/>
<path d="M3290 4301 c0 -12 26 -21 58 -21 15 0 22 4 17 9 -14 12 -75 22 -75
12z"/>
<path d="M3100 4250 c-21 -26 -29 -46 -25 -58 5 -17 -2 -20 -46 -25 -54 -7
-129 -49 -129 -72 0 -23 -41 -65 -78 -81 -32 -13 -35 -17 -20 -25 10 -5 33 -7
51 -4 27 5 37 14 50 44 10 21 17 45 17 54 0 24 53 56 104 63 41 6 48 4 77 -25
23 -23 29 -35 21 -43 -8 -8 -15 -8 -26 1 -34 28 -127 -25 -106 -59 5 -8 10
-27 10 -42 0 -16 6 -28 13 -28 27 0 79 42 105 85 33 54 51 63 74 36 22 -28 32
-26 65 7 29 30 103 58 138 53 16 -3 17 -1 6 13 -18 21 -94 22 -111 1 -7 -9
-26 -25 -42 -36 l-29 -21 -34 27 c-39 29 -43 53 -20 108 13 32 13 36 -4 51
-24 22 -25 21 -61 -24z"/>
<path d="M10153 4264 c-3 -8 1 -36 10 -62 18 -56 10 -75 -38 -98 -39 -18 -38
-18 -97 39 -18 17 -62 22 -92 11 -21 -8 -21 -24 0 -24 33 0 113 -33 135 -56
27 -29 42 -30 60 -4 13 19 15 20 37 5 12 -9 31 -34 43 -56 18 -37 69 -79 95
-79 7 0 14 15 16 33 3 17 8 39 12 48 5 12 -2 23 -24 39 -33 23 -63 28 -92 16
-34 -15 -21 32 15 54 41 25 72 25 120 -3 31 -17 42 -33 58 -76 22 -64 32 -72
79 -69 37 3 47 21 14 26 -26 5 -71 49 -78 77 -8 30 -79 71 -138 80 -42 6 -46
9 -38 25 8 15 3 26 -24 54 -36 38 -63 46 -73 20z"/>
<path d="M3419 4250 c18 -11 35 -19 37 -17 7 7 -19 24 -46 32 -20 5 -19 3 9
-15z"/>
<path d="M9880 4245 c-14 -8 -19 -14 -10 -14 8 0 24 6 34 14 25 19 9 19 -24 0z"/>
<path d="M3540 4191 c0 -9 71 -61 85 -61 4 0 -8 16 -28 35 -35 34 -57 44 -57
26z"/>
<path d="M9725 4165 c-22 -19 -35 -35 -29 -35 16 0 77 43 82 58 6 20 -11 13
-53 -23z"/>
<path d="M3495 4096 c-16 -11 -13 -14 30 -19 106 -15 159 1 63 18 -24 4 -50 9
-59 11 -9 2 -24 -3 -34 -10z"/>
<path d="M9751 4094 c-18 -8 -43 -14 -54 -14 -11 0 -17 -3 -14 -7 10 -9 128
-3 147 7 16 9 15 9 -33 24 -7 2 -28 -2 -46 -10z"/>
<path d="M9647 4016 c-4 -10 -5 -21 -2 -24 9 -9 17 6 13 25 -3 17 -4 17 -11
-1z"/>
<path d="M3660 4004 c0 -8 5 -12 10 -9 6 4 8 11 5 16 -9 14 -15 11 -15 -7z"/>
<path d="M3420 3994 c0 -12 -6 -15 -22 -9 -13 4 -45 9 -73 12 -41 4 -54 1 -74
-16 -13 -12 -28 -21 -33 -21 -5 0 -20 -12 -33 -26 -28 -30 -33 -75 -10 -94 14
-11 14 -15 1 -29 -27 -30 -48 -93 -42 -126 8 -43 82 -184 113 -217 l26 -28 11
22 c17 33 96 48 96 18 0 -6 -16 -18 -35 -27 -37 -18 -44 -30 -21 -39 8 -3 26
-23 40 -45 47 -71 160 -105 207 -63 12 10 32 38 46 62 25 43 25 43 9 95 -26
81 -65 117 -126 117 -19 0 -50 9 -68 20 -44 27 -53 26 -92 -15 -56 -58 -80
-43 -80 53 0 54 27 108 79 155 69 63 93 71 194 63 64 -4 109 -14 165 -37 42
-16 81 -34 87 -40 17 -17 28 -9 12 9 -19 21 -22 42 -6 42 11 0 40 -21 104 -74
33 -26 35 -27 35 -8 0 12 -18 36 -42 56 -94 79 -130 106 -142 106 -6 0 -16 10
-21 23 -6 12 -17 20 -25 18 -19 -5 -38 -4 -71 4 -21 6 -27 3 -32 -15 -3 -12
-10 -19 -16 -16 -6 4 -26 8 -45 9 -41 4 -87 32 -93 58 -6 23 -23 25 -23 3z
m-90 -44 c0 -5 -9 -10 -20 -10 -11 0 -20 5 -20 10 0 6 9 10 20 10 11 0 20 -4
20 -10z m345 -41 c10 -15 -1 -23 -20 -15 -9 3 -13 10 -10 16 8 13 22 13 30 -1z
m-250 -479 c0 -9 -11 -16 -27 -18 -27 -3 -38 14 -21 32 12 12 48 2 48 -14z
m68 -55 c1 -5 -6 -11 -15 -13 -11 -2 -18 3 -18 13 0 17 30 18 33 0z m7 -50 c0
-8 -6 -15 -14 -15 -17 0 -28 14 -19 24 12 12 33 6 33 -9z"/>
<path d="M9881 3988 c-13 -34 -53 -55 -111 -60 -39 -3 -45 0 -43 15 1 16 -3
18 -25 12 -15 -4 -43 -7 -63 -7 -29 0 -39 -5 -48 -24 -6 -13 -17 -24 -25 -24
-8 0 -21 -6 -28 -12 -7 -7 -39 -35 -71 -62 -60 -50 -94 -92 -84 -103 4 -3 26
12 50 34 58 54 94 76 107 68 8 -5 6 -14 -5 -31 l-16 -25 51 26 c116 59 283 77
355 38 45 -24 81 -61 113 -114 31 -51 30 -179 0 -179 -5 0 -29 16 -52 35 -50
41 -54 41 -106 15 -22 -11 -57 -20 -78 -20 -27 0 -45 -7 -60 -23 -25 -26 -52
-98 -52 -137 0 -38 62 -117 98 -125 44 -9 139 30 157 65 8 15 26 37 41 49 30
23 27 33 -16 51 -36 15 -35 34 3 38 32 4 67 -14 67 -34 0 -35 49 20 93 107 56
108 60 150 21 216 -24 41 -24 46 -10 62 37 41 11 89 -69 130 -51 26 -69 31
-99 26 -20 -4 -39 -11 -42 -16 -9 -16 -24 -10 -33 14 -9 22 -9 22 -20 -5z
m142 -43 c1 -5 -6 -11 -15 -13 -11 -2 -18 3 -18 13 0 17 30 18 33 0z m-343
-46 c0 -5 -7 -9 -15 -9 -15 0 -20 12 -9 23 8 8 24 -1 24 -14z m265 -479 c0
-18 -33 -26 -47 -12 -6 6 -7 15 -3 22 10 16 50 8 50 -10z m-87 -52 c-6 -18
-28 -21 -28 -4 0 9 7 16 16 16 9 0 14 -5 12 -12z m0 -46 c2 -7 -6 -12 -17 -12
-21 0 -27 11 -14 24 9 9 26 2 31 -12z"/>
<path d="M3555 3980 c3 -5 13 -10 21 -10 8 0 12 5 9 10 -3 6 -13 10 -21 10 -8
0 -12 -4 -9 -10z"/>
<path d="M9745 3979 c-4 -6 -5 -13 -2 -16 7 -7 27 6 27 18 0 12 -17 12 -25 -2z"/>
<path d="M3959 3701 c-4 -40 -2 -55 9 -59 15 -5 17 54 2 63 -5 3 -10 1 -11 -4z"/>
<path d="M9340 3665 c0 -19 5 -35 10 -35 6 0 10 16 10 35 0 19 -4 35 -10 35
-5 0 -10 -16 -10 -35z"/>
<path d="M3930 3670 c0 -5 5 -10 10 -10 6 0 10 5 10 10 0 6 -4 10 -10 10 -5 0
-10 -4 -10 -10z"/>
<path d="M4020 3642 c0 -5 7 -15 15 -22 8 -7 15 -8 15 -2 0 5 -7 15 -15 22 -8
7 -15 8 -15 2z"/>
<path d="M1280 3479 c0 -11 5 -17 10 -14 6 3 10 13 10 21 0 8 -4 14 -10 14 -5
0 -10 -9 -10 -21z"/>
<path d="M12040 3476 c0 -8 5 -18 10 -21 6 -3 10 3 10 14 0 12 -4 21 -10 21
-5 0 -10 -6 -10 -14z"/>
<path d="M11795 2690 c-3 -6 1 -7 9 -4 18 7 21 14 7 14 -6 0 -13 -4 -16 -10z"/>
</g>
</svg>
